<svg width="9" height="185" viewBox="0 0 9 185" fill="none" xmlns="http://www.w3.org/2000/svg">
<path d="M4.10697 183.854C4.10697 184.59 4.10697 185 4.10697 185L2.23158 183.126L2.23158 169.953L-6.1808e-07 167.721C-6.1808e-07 167.721 -6.1808e-07 158.17 -6.1808e-07 150.773C1.74317 149.031 4.10697 146.666 4.10697 146.666C4.10697 146.666 4.10697 177.48 4.10697 183.854Z" fill="#EDBB79"/>
<path d="M5.38062 130.59L8.68346 127.288V125.32L5.38062 128.622V130.59Z" fill="#EDBB79"/>
<path d="M5.38062 127.198L8.68346 123.897V121.929L5.38062 125.23V127.198Z" fill="#EDBB79"/>
<path d="M5.38062 120.414L8.68346 117.113V115.145L5.38062 118.447V120.414Z" fill="#EDBB79"/>
<path d="M5.38062 117.023L8.68346 113.721V111.753L5.38062 115.055V117.023Z" fill="#EDBB79"/>
<path d="M5.38062 113.631L8.68346 110.329V108.361L5.38062 111.663V113.631Z" fill="#EDBB79"/>
<path d="M5.38062 140.766L8.68346 137.464V135.496L5.38062 138.798V140.766Z" fill="#EDBB79"/>
<path d="M5.38062 133.982L8.68346 130.68V128.712L5.38062 132.014V133.982Z" fill="#EDBB79"/>
<path d="M5.38062 144.157L8.68346 140.856V138.888L5.38062 142.189V144.157Z" fill="#EDBB79"/>
<path d="M5.38062 137.374L8.68346 134.072V132.104L5.38062 135.406V137.374Z" fill="#EDBB79"/>
<path d="M5.38062 123.806L8.68346 120.505V118.537L5.38062 121.838V123.806Z" fill="#EDBB79"/>
<path d="M5.38062 86.4964L8.68346 83.1949V81.2269L5.38062 84.5284V86.4964Z" fill="#EDBB79"/>
<path d="M5.38062 89.8882L8.68346 86.5864V84.6185L5.38062 87.9203V89.8882Z" fill="#EDBB79"/>
<path d="M5.38062 110.239L8.68346 106.938V104.97L5.38062 108.271V110.239Z" fill="#EDBB79"/>
<path d="M5.38062 93.2802L8.68346 89.9784V88.0104L5.38062 91.3119V93.2802Z" fill="#EDBB79"/>
<path d="M5.38062 147.459L7.87394 144.966L7.87394 153.489L3.5457 157.817L4.11776 158.389L8.68346 153.824L8.68346 142.28L5.38062 145.581V147.459Z" fill="#EDBB79"/>
<path d="M7.87394 33.1623L6.30617 34.7285L6.30617 49.146L7.87394 50.7122L7.87394 78.7119L5.38062 81.2042V83.1044L8.68346 79.8029L8.68346 6.28025H7.87394L7.87394 33.1623Z" fill="#EDBB79"/>
<path d="M5.38062 106.847L8.68346 103.546V101.578L5.38062 104.879V106.847Z" fill="#EDBB79"/>
<path d="M5.38062 103.456L8.68346 100.154V98.1858L5.38062 101.488V103.456Z" fill="#EDBB79"/>
<path d="M5.38062 100.064L8.68346 96.7622V94.7942L5.38062 98.0957V100.064Z" fill="#EDBB79"/>
<path d="M5.38062 96.6717L8.68346 93.3702V91.4023L5.38062 94.7038V96.6717Z" fill="#EDBB79"/>
<path d="M1.54618 6.96998L4.32014 9.74179L4.32014 63.3008C3.34062 64.2809 2.25047 65.3697 2.25047 65.3697L2.25047 71.202L0.642214 72.8103L0.642214 88.1763L2.3557 89.8882L2.3557 111.665C2.3557 111.665 2.92507 112.236 3.45126 112.762C3.90189 113.212 4.32014 113.631 4.32014 113.631C4.32014 113.631 4.32014 88.9802 4.32014 73.2752L5.12966 72.4657L5.12966 27.8206L5.12966 8.74285L5.12966 3.58079H8.68346L5.10268 -1.23388e-06H1.54618L1.54618 6.96998Z" fill="#EDBB79"/>
</svg>
