<svg width="85" height="794" viewBox="0 0 85 794" fill="none" xmlns="http://www.w3.org/2000/svg">
<path d="M24.2113 0.585205L43.7313 20.1025L43.7313 166.936L24.1046 186.576L24.1046 273.149L7.95798 289.296L7.95798 247.283L0.0913086 239.403L0.0913086 165.576L8.55798 157.114L8.55798 0.585205L24.2113 0.585205Z" fill="#EDBB79"/>
<path d="M25.2515 335.269L47.3981 313.136L47.3981 212.189L80.1981 179.389V101.045L63.4248 84.2692L66.2515 81.4412L84.1981 99.3892V181.042L51.3981 213.856L51.3981 314.789L28.0782 338.096L25.2515 335.269Z" fill="#EDBB79"/>
<path d="M38.398 777.323L59.2114 756.509L59.2114 658.856L46.3714 646.016L46.3714 559.602L38.398 551.642L38.398 204.269L69.9447 172.723V22.8266L47.7047 0.585205C47.7047 0.585205 40.1313 0.585205 33.8913 0.585205C42.6247 9.31987 52.8514 19.5359 52.8514 19.5359L52.8514 170.042L30.5447 192.336L30.5447 277.523L17.8913 290.176L17.8913 345.123L7.47803 355.536L7.47803 484.296C7.47803 484.296 34.2514 511.069 34.398 511.216L34.398 793.896H38.398L38.398 777.323Z" fill="#EDBB79"/>
<path d="M44.4648 540.389L44.4648 380.042H48.4648L48.4648 538.736L56.4382 546.709V640.896H52.4382V548.363L44.4648 540.389Z" fill="#EDBB79"/>
<path d="M30.3448 518.936L16.5581 505.149V522.349L30.3448 536.136V518.936Z" fill="#EDBB79"/>
<path d="M30.3448 551.029L16.5581 537.242V554.442L30.3448 568.229V551.029Z" fill="#EDBB79"/>
<path d="M30.3448 583.123L16.5581 569.336V586.523L30.3448 600.323V583.123Z" fill="#EDBB79"/>
<path d="M30.3448 615.216L16.5581 601.429V618.616L30.3448 632.403V615.216Z" fill="#EDBB79"/>
<path d="M30.3448 647.309L16.5581 633.523V650.709L30.3448 664.496V647.309Z" fill="#EDBB79"/>
<path d="M30.3448 679.403L16.5581 665.616V682.803L30.3448 696.589V679.403Z" fill="#EDBB79"/>
<path d="M30.3448 711.496L16.5581 697.709V714.896L30.3448 728.683V711.496Z" fill="#EDBB79"/>
<path d="M30.3448 743.589L16.5581 729.802V746.989L30.3448 760.776V743.589Z" fill="#EDBB79"/>
<path d="M30.3448 775.682L16.5581 761.896V779.082L30.3448 792.869V775.682Z" fill="#EDBB79"/>
</svg>
